<?xml version="1.0" encoding="UTF-8"?>
<svg width="107px" height="99px" viewBox="0 0 107 99" version="1.1" xmlns="http://www.w3.org/2000/svg" xmlns:xlink="http://www.w3.org/1999/xlink">
    <!-- Generator: Sketch 53.2 (72643) - https://sketchapp.com -->
    <title>Talk Glyph</title>
    <desc>Created with Sketch.</desc>
    <g id="Page-1" stroke="none" stroke-width="1" fill="none" fill-rule="evenodd">
        <g id="Talk-Glyph" transform="translate(-12.000000, -20.000000)">
            <polyline id="Fill-7" fill="#000000" points="115.9724 113.4836 114.5164 113.4836 114.5164 112.0612 113.4372 112.0612 113.4372 113.4836 111.9896 113.4836 111.9896 114.504 113.4372 114.504 113.4372 115.9264 114.5164 115.9264 114.5164 114.504 115.9724 114.504 115.9724 113.4836"></polyline>
            <path d="M113.9812,117.9104 C116.144,117.9104 117.8972,116.1568 117.8972,113.994 C117.8972,111.8308 116.144,110.0776 113.9812,110.0776 C111.818,110.0776 110.0648,111.8308 110.0648,113.994 C110.0648,116.1568 111.818,117.9104 113.9812,117.9104 Z" id="Stroke-8" stroke="#000000"></path>
            <rect id="Rectangle" x="0" y="0" width="128" height="128"></rect>
            <path d="M113.470892,74.9796787 L113.470892,74.9796787 C111.95068,75.1628383 110.565611,74.0877645 110.361412,72.5661523 L107.010949,42.0005672 L107.010949,42.000566 C106.876914,40.4905167 107.989063,39.1574233 109.495003,39.0230211 C109.506268,39.0220159 109.517538,39.0210806 109.528814,39.0202153 L109.528813,39.0202153 C111.048464,38.8375893 112.432751,39.9123883 112.636861,41.4333824 L115.989116,71.9991472 L115.989115,71.9991466 C116.122779,73.5097278 115.009901,74.8429541 113.50343,74.976979 C113.49259,74.9779434 113.481745,74.978843 113.470894,74.9796778 L113.470892,74.9796787 Z M100.701979,83.9690568 L100.701979,83.9690568 C98.7409854,84.2300075 96.9388102,82.8124006 96.6438228,80.7768676 L92.0112943,37.9729678 L92.0112942,37.9729673 C91.8570908,35.9590137 93.2999787,34.1962041 95.2340726,34.0356305 C95.255393,34.0338605 95.2767283,34.0322932 95.2980761,34.0309289 L95.2980759,34.030929 C97.2591894,33.7700532 99.0615189,35.1875334 99.3569178,37.2231181 L103.988761,80.0275536 L103.988761,80.0275547 C104.142593,82.0416333 102.699303,83.8042287 100.765091,83.9644273 C100.744069,83.9661683 100.723033,83.9677121 100.701984,83.9690585 L100.701979,83.9690568 Z M84.0667159,105.194959 L51.9789915,108.943173 L51.9789914,108.943173 C47.0397235,109.491987 42.5827266,106.00385 42.0239889,101.152196 C42.0225781,101.139946 42.0211935,101.127693 42.0198349,101.115437 L34.0672294,33.7148767 L34.0672291,33.714874 C33.4645417,28.84775 36.9808102,24.4177753 41.9332001,23.8049118 L74.0205621,20.0568757 L74.0205617,20.0568757 C78.9600109,19.5078141 83.4173521,22.9958965 83.9763254,27.84771 C83.9777216,27.8598281 83.9790922,27.8719491 83.9804372,27.8840729 L91.9328614,95.2857017 L91.9328615,95.2857019 C92.5351139,100.15263 89.0188454,104.582178 84.0667092,105.194952 L84.0667159,105.194959 Z M67.5000002,89 L67.5,89 C64.4624417,89.0000001 62,91.4624417 62,94.5 C62.0000001,97.5375583 64.4624417,100 67.5,100 C70.5375583,99.9999999 73,97.5375583 73,94.5 L73,94.5000002 C73,91.4624419 70.5375583,89.0000002 67.5,89.0000002 C67.4997556,89.0000002 67.4995112,89.0000002 67.4992669,89.0000002 L67.5000002,89 Z M32.7020618,94.9690258 L32.7020621,94.9690257 C30.7410106,95.2301063 28.9386523,93.8126344 28.6433484,91.7770217 L24.0113091,48.9730315 L24.011309,48.9730305 C23.8570105,46.9591882 25.2996887,45.1963822 27.2336256,45.0357197 C27.2549535,45.0339478 27.2762965,45.0323787 27.2976521,45.0310129 L27.2976518,45.0310129 C29.2588062,44.7697413 31.0613016,46.187406 31.3563655,48.2231954 L35.9887477,91.0277213 L35.9887477,91.027721 C36.1426585,93.041599 34.699641,94.8041015 32.7656767,94.9643712 C32.744487,94.9661272 32.7232825,94.9676829 32.7020657,94.9690381 L32.7020618,94.9690258 Z M18.4711613,89.9795564 L18.4711614,89.9795564 C16.9507197,90.163326 15.5651875,89.0879854 15.3614509,87.56604 L12.0109333,57.0005818 L12.0109333,57.0005818 C11.8769867,55.490431 12.9893149,54.1573252 14.4953869,54.0230313 C14.5065316,54.0220375 14.5176822,54.0211121 14.5288382,54.0202553 L14.5288382,54.0202553 C16.0485685,53.8374289 17.4330024,54.9123204 17.6369361,56.4334124 L20.9890663,86.9990503 L20.9890664,86.9990512 C21.1230195,88.5093009 20.0106167,89.8424875 18.5044515,89.9767994 C18.4933619,89.9777883 18.4822664,89.9787094 18.4711658,89.9795626 L18.4711613,89.9795564 Z" id="Shape" fill="#000000"></path>
        </g>
    </g>
</svg>